# xmcd CD database file
#
# Track frame offsets:
#	150
#	22595
#	40882
#	61097
#	80557
#	101832
#	122057
#	143025
#	158870
#	180184
#
# Disc length: 2711 seconds
#
# Revision: 2
# Processed by: cddbd v1.5.2PL0 Copyright (c) Steve Scherf et al.
# Submitted via: CDex 1.70beta2
#
DISCID=720a950a
DTITLE=辛曉琪 - 愛上他，不只是我的錯
DYEAR=1996
DGENRE=Pop
TTITLE0=愛上他，不只是我的錯
TTITLE1=隱隱寂寞
TTITLE2=看穿
TTITLE3=多情最累
TTITLE4=嫉妒
TTITLE5=忐忑
TTITLE6=味道Ⅱ一夢外
TTITLE7=滿心歡喜
TTITLE8=恩愛
TTITLE9=情婦
EXTD=YEAR: 1996
EXTT0=
EXTT1=
EXTT2=
EXTT3=
EXTT4=
EXTT5=
EXTT6=
EXTT7=
EXTT8=
EXTT9=
PLAYORDER=
